<mxfile host="app.diagrams.net" modified="2023-08-28T02:51:40.066Z" agent="Mozilla/5.0 (Windows NT 10.0; Win64; x64) AppleWebKit/537.36 (KHTML, like Gecko) Chrome/116.0.0.0 Safari/537.36 Edg/116.0.1938.62" etag="uPnq861Jww_DIMjuyGQ4" version="21.6.9" type="github">
  <diagram name="페이지-1" id="0FhbnPav8s2QQJVRhi_f">
    <mxGraphModel dx="532" dy="495" grid="1" gridSize="10" guides="1" tooltips="1" connect="1" arrows="1" fold="1" page="1" pageScale="1" pageWidth="827" pageHeight="1169" math="0" shadow="0">
      <root>
        <mxCell id="0" />
        <mxCell id="1" parent="0" />
        <mxCell id="FE6iDWLbIdrt1VgTCzfn-5" value="Region" style="shape=mxgraph.ibm.box;prType=region;fontStyle=0;verticalAlign=top;align=left;spacingLeft=32;spacingTop=4;fillColor=none;rounded=0;whiteSpace=wrap;html=1;strokeColor=#919191;strokeWidth=2;dashed=0;container=1;spacing=-4;collapsible=0;expand=0;recursiveResize=0;" vertex="1" parent="1">
          <mxGeometry x="50" y="400" width="740" height="550" as="geometry" />
        </mxCell>
        <mxCell id="FE6iDWLbIdrt1VgTCzfn-3" value="VPC" style="sketch=0;outlineConnect=0;gradientColor=none;html=1;whiteSpace=wrap;fontSize=12;fontStyle=0;shape=mxgraph.aws4.group;grIcon=mxgraph.aws4.group_vpc;strokeColor=#879196;fillColor=none;verticalAlign=top;align=left;spacingLeft=30;fontColor=#879196;dashed=0;" vertex="1" parent="FE6iDWLbIdrt1VgTCzfn-5">
          <mxGeometry x="40" y="60" width="630" height="440" as="geometry" />
        </mxCell>
        <mxCell id="FE6iDWLbIdrt1VgTCzfn-6" value="Subnet" style="sketch=0;outlineConnect=0;gradientColor=none;html=1;whiteSpace=wrap;fontSize=12;fontStyle=0;shape=mxgraph.aws4.group;grIcon=mxgraph.aws4.group_subnet;strokeColor=#879196;fillColor=none;verticalAlign=top;align=left;spacingLeft=30;fontColor=#879196;dashed=0;" vertex="1" parent="FE6iDWLbIdrt1VgTCzfn-5">
          <mxGeometry x="80" y="120" width="540" height="340" as="geometry" />
        </mxCell>
        <mxCell id="FE6iDWLbIdrt1VgTCzfn-9" style="edgeStyle=orthogonalEdgeStyle;rounded=0;orthogonalLoop=1;jettySize=auto;html=1;" edge="1" parent="FE6iDWLbIdrt1VgTCzfn-5" source="FE6iDWLbIdrt1VgTCzfn-1" target="FE6iDWLbIdrt1VgTCzfn-2">
          <mxGeometry relative="1" as="geometry" />
        </mxCell>
        <mxCell id="FE6iDWLbIdrt1VgTCzfn-1" value="" style="sketch=0;points=[[0,0,0],[0.25,0,0],[0.5,0,0],[0.75,0,0],[1,0,0],[0,1,0],[0.25,1,0],[0.5,1,0],[0.75,1,0],[1,1,0],[0,0.25,0],[0,0.5,0],[0,0.75,0],[1,0.25,0],[1,0.5,0],[1,0.75,0]];outlineConnect=0;fontColor=#232F3E;gradientColor=#F78E04;gradientDirection=north;fillColor=#D05C17;strokeColor=#ffffff;dashed=0;verticalLabelPosition=bottom;verticalAlign=top;align=center;html=1;fontSize=12;fontStyle=0;aspect=fixed;shape=mxgraph.aws4.resourceIcon;resIcon=mxgraph.aws4.ec2;" vertex="1" parent="FE6iDWLbIdrt1VgTCzfn-5">
          <mxGeometry x="120" y="156" width="80" height="80" as="geometry" />
        </mxCell>
        <mxCell id="FE6iDWLbIdrt1VgTCzfn-2" value="" style="outlineConnect=0;dashed=0;verticalLabelPosition=bottom;verticalAlign=top;align=center;html=1;shape=mxgraph.aws3.rds;fillColor=#2E73B8;gradientColor=none;" vertex="1" parent="FE6iDWLbIdrt1VgTCzfn-5">
          <mxGeometry x="240" y="156" width="72" height="81" as="geometry" />
        </mxCell>
        <mxCell id="FE6iDWLbIdrt1VgTCzfn-8" style="edgeStyle=orthogonalEdgeStyle;rounded=0;orthogonalLoop=1;jettySize=auto;html=1;" edge="1" parent="1" source="FE6iDWLbIdrt1VgTCzfn-7" target="FE6iDWLbIdrt1VgTCzfn-1">
          <mxGeometry relative="1" as="geometry" />
        </mxCell>
        <mxCell id="FE6iDWLbIdrt1VgTCzfn-7" value="" style="sketch=0;pointerEvents=1;shadow=0;dashed=0;html=1;strokeColor=none;fillColor=#434445;aspect=fixed;labelPosition=center;verticalLabelPosition=bottom;verticalAlign=top;align=center;outlineConnect=0;shape=mxgraph.vvd.web_browser;" vertex="1" parent="1">
          <mxGeometry x="167.74" y="250" width="84.51" height="60" as="geometry" />
        </mxCell>
      </root>
    </mxGraphModel>
  </diagram>
</mxfile>
